<svg width="68" height="53" viewBox="0 0 68 53" fill="none" xmlns="http://www.w3.org/2000/svg">
<path d="M0.577982 36.8028H66.8202V38.7969H0.577982V36.8028Z" fill="#FC2020" stroke="white" stroke-width="1.15596"/>
<path d="M0.577982 49.7972H66.8202V51.7913H0.577982V49.7972Z" fill="#FC2020" stroke="white" stroke-width="1.15596"/>
<path d="M0.65 40.999H2.82618V47.5943H0.65V40.999Z" fill="#FC2020" stroke="white" stroke-width="1.3"/>
<path d="M32.61 40.9989H34.7861V47.5942H32.61V40.9989Z" fill="#FC2020" stroke="white" stroke-width="1.3"/>
<path d="M64.5724 40.9989H66.7485V47.5942H64.5724V40.9989Z" fill="#FC2020" stroke="white" stroke-width="1.3"/>
<path d="M0.577982 18.6914H66.8202V20.6854H0.577982V18.6914Z" fill="#FC2020" stroke="white" stroke-width="1.15596"/>
<path d="M0.577982 31.6838H66.8202V33.6779H0.577982V31.6838Z" fill="#FC2020" stroke="white" stroke-width="1.15596"/>
<path d="M0.65 22.8871H2.82618V29.4824H0.65V22.8871Z" fill="#FC2020" stroke="white" stroke-width="1.3"/>
<path d="M32.61 22.8871H34.7861V29.4824H32.61V22.8871Z" fill="#FC2020" stroke="white" stroke-width="1.3"/>
<path d="M64.5724 22.8871H66.7485V29.4824H64.5724V22.8871Z" fill="#FC2020" stroke="white" stroke-width="1.3"/>
<path d="M0.577982 0.577982H66.8202V2.57202H0.577982V0.577982Z" fill="#FC2020" stroke="white" stroke-width="1.15596"/>
<path d="M0.577982 13.5721H66.8202V15.5662H0.577982V13.5721Z" fill="#FC2020" stroke="white" stroke-width="1.15596"/>
<path d="M0.65 4.77354H2.82618V11.3689H0.65V4.77354Z" fill="#FC2020" stroke="white" stroke-width="1.3"/>
<path d="M32.61 4.77354H34.7861V11.3689H32.61V4.77354Z" fill="#FC2020" stroke="white" stroke-width="1.3"/>
<path d="M64.5724 4.77354H66.7485V11.3689H64.5724V4.77354Z" fill="#FC2020" stroke="white" stroke-width="1.3"/>
</svg>
