<svg width="50" height="54" viewBox="0 0 50 54" fill="none" xmlns="http://www.w3.org/2000/svg">
<path d="M27.8776 39.4768L27.8748 39.4772C25.8481 39.7427 24.1392 39.7427 22.1124 39.4776L22.0545 39.47L22.0526 39.4681C18.375 38.9027 14.963 37.3119 12.1595 34.84L27.8776 39.4768ZM27.8776 39.4768C31.5773 38.9322 35.0099 37.3241 37.8273 34.84C41.981 31.1861 44.3583 25.9243 44.3583 20.4096C44.3583 9.77829 35.6764 1.14261 24.9934 1.14261C14.3097 1.14261 5.62844 9.77898 5.62844 20.4096C5.62844 25.9239 8.00614 31.1856 12.1593 34.8399L27.8776 39.4768ZM38.9676 35.0672L38.8365 35.1909L38.964 35.3183L49.0605 45.404L49.0609 45.4044C49.1992 45.5417 49.245 45.7433 49.1688 45.923L49.1688 45.9231C49.0899 46.1097 48.9143 46.2245 48.7211 46.2245H41.8924H41.7174V46.3995V53.1934C41.7174 53.3841 41.6025 53.5589 41.4144 53.6378L41.4143 53.6374L41.4045 53.6423C41.3573 53.6656 41.2939 53.6766 41.2308 53.6766C41.1074 53.6766 40.9926 53.6309 40.8912 53.53L27.803 40.5086L27.7424 40.4483L27.6576 40.459C26.7234 40.5769 25.8442 40.6419 24.9797 40.6419C24.1279 40.6419 23.2359 40.5769 22.3017 40.459L22.2169 40.4483L22.1564 40.5086L9.06812 53.53L9.06793 53.5299L9.06152 53.537C8.98029 53.6271 8.85769 53.6766 8.7285 53.6766C8.66473 53.6766 8.60194 53.6658 8.55555 53.6426L8.55573 53.6423L8.54483 53.6377C8.35651 53.5589 8.24194 53.3842 8.24194 53.1934V46.3995V46.2245H8.06694H1.23821C1.04516 46.2245 0.869477 46.1094 0.790511 45.923L0.790536 45.923L0.789284 45.9202C0.71601 45.7554 0.75997 45.5422 0.898591 45.4043L0.898672 45.4042L11.0228 35.3185L11.1507 35.1911L11.0194 35.0672C6.97761 31.2545 4.65589 25.9678 4.65589 20.408C4.65589 9.24818 13.7743 0.175 24.9935 0.175C36.2127 0.175 45.3311 9.24795 45.3311 20.408C45.3311 25.9684 43.0094 31.2551 38.9676 35.0672ZM9.21517 51.6005V52.0212L9.51352 51.7247L20.8155 40.4936L21.0443 40.2662L20.729 40.1984C17.5141 39.5064 14.5224 38.0574 11.99 35.9555L11.8676 35.8539L11.7548 35.9661L2.71582 44.959L2.41522 45.258H2.83924H8.72861C9.00324 45.258 9.21517 45.4702 9.21517 45.7412V51.6005ZM40.4727 51.7252L40.7712 52.0221V51.6011V45.7418C40.7712 45.4707 40.9831 45.2586 41.2577 45.2586H47.1471H47.5711L47.2705 44.9595L38.2182 35.9534L38.1054 35.8412L37.983 35.9428C35.4502 38.0452 32.4717 39.507 29.258 40.1856L28.9412 40.2525L29.1708 40.4809L40.4727 51.7252Z" fill="#FC2020" stroke="white" stroke-width="0.35"/>
<path d="M38.226 16.4344L38.226 16.4343L38.2228 16.4374L32.002 22.4806L31.9358 22.5449L31.9515 22.6358L33.42 31.1659C33.4201 31.1662 33.4201 31.1665 33.4202 31.1669C33.4492 31.3512 33.3706 31.5356 33.225 31.642L33.219 31.6464L33.2134 31.6512C33.1472 31.7088 33.0466 31.7401 32.9446 31.7401C32.8673 31.7401 32.7914 31.7207 32.7264 31.6839L32.7264 31.6838L32.7213 31.6811L25.0192 27.6522L24.9381 27.6098L24.857 27.6522L17.1549 31.6811L17.1544 31.6813C16.9901 31.7679 16.7839 31.7492 16.6378 31.6424L16.6379 31.6423L16.6332 31.6392C16.4837 31.5371 16.4127 31.3576 16.4427 31.1673C16.4427 31.167 16.4428 31.1667 16.4428 31.1663L17.9114 22.6362L17.927 22.5452L17.8607 22.4809L11.6275 16.4373L11.6276 16.4372L11.6244 16.4344C11.4903 16.3104 11.4422 16.1195 11.4997 15.9472C11.5589 15.7718 11.7041 15.6467 11.8897 15.6171C11.89 15.617 11.8903 15.617 11.8906 15.6169L20.5038 14.3666L20.5947 14.3534L20.6355 14.2711L24.486 6.50384C24.4861 6.50369 24.4862 6.50355 24.4862 6.5034C24.562 6.3533 24.7324 6.2646 24.9252 6.2646C25.1181 6.2646 25.2885 6.3533 25.3642 6.5034C25.3643 6.50355 25.3644 6.50369 25.3644 6.50384L29.215 14.2711L29.2558 14.3534L29.3467 14.3666L37.9602 15.617C38.1368 15.6466 38.293 15.7745 38.3507 15.947L38.3507 15.9471C38.4083 16.119 38.3603 16.3104 38.226 16.4344ZM25.1442 26.6299L25.1441 26.63L25.1495 26.6328L31.9922 30.2006L32.3054 30.3638L32.2456 30.0158L30.9486 22.4583L30.9486 22.4583L30.9481 22.4554C30.9194 22.304 30.9656 22.1517 31.0841 22.0334C31.0843 22.0332 31.0845 22.033 31.0848 22.0327L36.6017 16.6753L36.8567 16.4276L36.5049 16.3766L28.8821 15.2705L28.8821 15.2704L28.8771 15.2698C28.7102 15.2505 28.5785 15.1548 28.5125 15.014L28.5125 15.014L28.5108 15.0105L25.0961 8.1377L24.9394 7.82226L24.7827 8.1377L21.3706 15.0054C21.2861 15.1496 21.1457 15.2518 21.0001 15.27L21.0001 15.27L20.9967 15.2705L13.3744 16.377L13.0226 16.4281L13.2776 16.6757L18.7945 22.0332C18.7947 22.0334 18.795 22.0336 18.7952 22.0338C18.9024 22.141 18.9594 22.3071 18.9312 22.4558L18.9307 22.4588L17.6337 30.0163L17.5738 30.365L17.8873 30.2009L24.7028 26.6327L24.7028 26.6328L24.7078 26.6299C24.7728 26.5931 24.8488 26.5737 24.926 26.5737C25.0032 26.5737 25.0792 26.5931 25.1442 26.6299Z" fill="#FC2020" stroke="white" stroke-width="0.35"/>
</svg>
