<svg width="48" height="56" viewBox="0 0 48 56" fill="none" xmlns="http://www.w3.org/2000/svg">
<path d="M18.092 3.51524L18.0922 3.51505C19.0937 2.48572 20.9125 1.75424 22.9597 1.48109C25.0158 1.20675 27.3504 1.38763 29.4149 2.2331L29.4149 2.23312C30.8933 2.83883 32.4889 3.87542 33.7108 5.64234C34.9333 7.41018 35.7676 9.88873 35.7566 13.3538L35.7552 13.7863L35.3675 13.5947C35.0038 13.415 34.5914 13.345 34.1843 13.3945L33.9435 13.4237L33.889 13.1873C33.5756 11.8261 32.6961 10.6428 31.4478 9.91256L31.4455 9.91127C31.3014 9.82507 31.1234 9.80406 30.96 9.85545L30.9579 9.8561C28.4019 10.6374 25.74 11.0527 23.0582 11.0882C20.6316 11.1892 18.2265 10.6043 16.1422 9.40479L16.1319 9.39883L16.132 9.39861C15.8833 9.2404 15.5503 9.29104 15.3654 9.50799L15.3631 9.51078L15.3631 9.51076C14.6764 10.295 14.265 11.2649 14.1856 12.2822L14.1654 12.5414L13.9056 12.5307C13.6088 12.5185 13.3146 12.5802 13.0517 12.7093L12.6876 12.8881L12.6637 12.4831C12.6087 11.5501 12.5997 10.2492 12.8122 8.93422C13.024 7.62321 13.4604 6.27043 14.3175 5.25911L18.092 3.51524ZM18.092 3.51524C17.9932 3.61704 17.855 3.68043 17.7056 3.68895M18.092 3.51524L17.7056 3.68895M32.4649 14.1463C32.452 14.4102 32.5759 14.6634 32.7944 14.8238L32.4649 14.1463ZM32.4649 14.1463L32.4925 13.5656L32.4649 14.1463ZM17.7056 3.68895C16.3918 3.70255 15.1491 4.27611 14.3176 5.25906L17.7056 3.68895ZM0.8037 40.3373L0.803889 40.3373L0.804406 40.3272C0.899664 38.4687 1.96343 36.7743 3.64383 35.8227L17.7866 30.024L18.1638 29.8693L17.8738 29.5827C16.5537 28.2777 15.4901 26.7568 14.7328 25.0928C13.3239 21.7927 12.5075 18.2883 12.3189 14.7279L12.308 14.5217L12.1061 14.4785C11.8721 14.4284 11.7035 14.25 11.6679 14.0389C11.6477 13.9144 11.4037 12.349 11.5098 10.4093C11.6167 8.45698 12.0758 6.17829 13.4212 4.59147L13.422 4.59052C14.3774 3.45308 15.7865 2.74458 17.3125 2.64027L17.4054 2.63393L17.4746 2.57164C18.6318 1.52974 20.5871 0.727546 22.8425 0.424827C25.0925 0.122828 27.6084 0.322729 29.8712 1.24953C31.2934 1.83232 33.1733 2.94572 34.6301 5.03187C36.0846 7.11481 37.1341 10.1911 36.859 14.7312C36.8451 14.9387 36.7018 15.127 36.4823 15.2004L36.3146 15.2564L36.2991 15.4325C36.0424 18.3458 35.3722 21.212 34.3071 23.9527L34.3066 23.9539C33.4188 26.27 32.003 28.3672 30.1603 30.0942L29.8501 30.385L30.2454 30.5417C32.968 31.6206 39.9803 34.4045 42.9358 35.618C44.8672 36.4109 45.8161 37.5877 46.2853 38.6113C46.758 39.6425 46.7514 40.5361 46.7406 40.7583L46.74 40.7701L46.7405 40.782L47.2721 54.1979L47.2721 54.198C47.2778 54.3396 47.2232 54.4796 47.1165 54.5861C47.0096 54.6924 46.8593 54.7548 46.6998 54.7548H0.841679C0.68367 54.7548 0.534822 54.694 0.428065 54.5896C0.321746 54.4845 0.266175 54.346 0.269593 54.2056L0.269597 54.2054C0.280305 53.7563 0.539211 43.3133 0.8037 40.3373ZM23.4993 38.5009L23.6446 38.5939L23.7899 38.5009L25.8157 37.2051L25.9631 37.1108L25.937 36.9377L25.6592 35.0944L25.6246 34.8649H25.3925H21.8966H21.6645L21.6299 35.0944L21.3521 36.9377L21.326 37.1108L21.4734 37.2051L23.4993 38.5009ZM23.3224 39.6874L23.3224 39.6874L22.6435 39.253L22.2588 39.0069L22.229 39.4626L21.3186 53.3939L21.2998 53.6811H21.5877H25.7021H25.99L25.9712 53.3939L25.0608 39.4626L25.0311 39.0072L24.6465 39.253L23.9669 39.6874L23.9668 39.6874C23.7723 39.8119 23.5169 39.8119 23.3224 39.6874ZM15.7774 24.6499L15.7773 24.65L15.7813 24.6586C16.5023 26.212 17.6313 27.8984 19.0756 29.2001C20.5201 30.5019 22.2977 31.4339 24.3075 31.4339C26.4361 31.4339 28.2892 30.3923 29.7923 28.8998C31.2952 27.4076 32.4667 25.448 33.2417 23.5609L33.2418 23.561L33.2438 23.5557C34.3123 20.7899 34.969 17.8939 35.1937 14.9529L35.2032 14.8284L35.1143 14.7406C34.8361 14.4656 34.418 14.3821 34.0534 14.5197L33.4848 14.6941C33.3019 14.7497 33.1032 14.716 32.954 14.6064L32.954 14.6064C32.8055 14.4974 32.7259 14.3293 32.7342 14.1595L32.7343 14.1591L32.7619 13.5784L32.7631 13.5528L32.7594 13.5274C32.6136 12.5102 32.0263 11.6031 31.1486 11.027L31.0447 10.9588L30.9254 10.9934C28.3704 11.735 25.7185 12.1281 23.0485 12.1616V12.1615L23.0439 12.1617C20.6604 12.2324 18.2975 11.7246 16.1751 10.6845L15.9556 10.5769L15.827 10.785C15.4748 11.3553 15.3019 12.0124 15.3307 12.6764L15.3306 12.6764L15.3311 12.6836L15.3746 13.302L15.3746 13.3022C15.3871 13.478 15.3065 13.652 15.152 13.7629L15.1514 13.7634C14.9971 13.8749 14.7906 13.9048 14.6048 13.8399L14.6046 13.8398L13.9961 13.6277L13.9693 13.6184L13.9412 13.6148C13.8267 13.6003 13.7101 13.6139 13.6017 13.6549L13.4216 13.723L13.4275 13.9153C13.5401 17.5989 14.3361 21.2339 15.7774 24.6499ZM4.13294 36.7925L4.0919 36.8094L4.07366 36.8252C2.80039 37.6236 2.00377 38.9663 1.94419 40.4329C1.72434 42.9079 1.5025 50.8244 1.43457 53.4038L1.42728 53.6806L1.70416 53.6806L19.8998 53.68L20.1524 53.68L20.1689 53.4279L21.1468 38.4603L21.1572 38.3014L21.023 38.2155L20.3869 37.8087L20.3865 37.8085C20.203 37.6915 20.1124 37.4892 20.1423 37.2906L20.1423 37.2906L20.5999 34.2522C20.6386 33.9956 20.8728 33.7901 21.1667 33.7901H26.1217C26.4154 33.7901 26.6496 33.9955 26.6884 34.2521C26.6885 34.2521 26.6885 34.2522 26.6885 34.2522L27.1454 37.2905L27.1454 37.2906C27.1754 37.4892 27.0848 37.6915 26.9012 37.8085L26.9008 37.8088L26.2653 38.2156L26.1312 38.3014L26.1415 38.4603L27.1195 53.4279L27.136 53.68L27.3886 53.68L45.8263 53.6806L46.1069 53.6806L46.0957 53.4002L45.5959 40.785C45.5959 40.7849 45.5959 40.7849 45.5959 40.7848C45.5952 40.7652 45.5959 40.7453 45.5979 40.723L45.598 40.723L45.5985 40.7161C45.6033 40.6418 45.6378 39.9491 45.2611 39.1041C44.8808 38.2511 44.0899 37.2632 42.4785 36.6014L42.4785 36.6014C39.1074 35.2175 30.4449 31.7855 28.9268 31.1844L28.7981 31.1334L28.6817 31.2082C27.3883 32.0393 25.8687 32.4912 24.3099 32.5079C22.4678 32.4571 20.6944 31.8357 19.2549 30.7379L19.1321 30.6442L18.9891 30.7028L4.13294 36.7925Z" fill="#FC2020" stroke="white" stroke-width="0.539346"/>
</svg>
