<svg width="1920" height="645" viewBox="0 0 1920 645" fill="none" xmlns="http://www.w3.org/2000/svg">
<g clip-path="url(#clip0_4802_84)">
<path d="M1212.6 637.541L1183.88 591.107L1212.62 642.599L1212.63 647.89C1214.68 647.865 1216.71 647.785 1218.72 647.65L1216.37 579.683L1216.41 579.158L1216.35 579.058L1216.13 572.635L1246.16 521.744L1216.1 567.826L1216.01 569.186L1214.24 517.835L1240.06 465.181L1214.04 508.811L1212.83 402.375L1212.82 402.02L1212.82 402.369L1212.23 486.287L1187.56 452.71L1212.25 493.515L1212.36 539.478L1189.47 495.087L1212.38 546.235L1212.44 571.793L1179.19 509.985L1212.47 580.708L1212.6 637.541Z" fill="#E2E2E2"/>
<path d="M1459.08 637.541L1430.36 591.107L1459.09 642.599L1459.11 647.89C1461.16 647.865 1463.19 647.785 1465.19 647.65L1462.85 579.683L1462.88 579.158L1462.83 579.058L1462.61 572.635L1492.64 521.744L1462.58 567.826L1462.49 569.186L1460.72 517.835L1486.53 465.182L1460.51 508.811L1459.3 402.375L1459.3 402.02L1459.29 402.369L1458.7 486.287L1434.03 452.71L1458.73 493.515L1458.84 539.478L1435.95 495.087L1458.85 546.235L1458.92 571.793L1425.67 509.985L1458.94 580.709L1459.08 637.541Z" fill="#E2E2E2"/>
<path d="M965.892 640.527L945.152 606.998L965.902 644.179L965.913 648C967.392 647.982 968.857 647.925 970.307 647.827L968.615 598.748L968.638 598.369L968.599 598.297L968.438 593.659L990.124 556.911L968.416 590.186L968.351 591.168L967.073 554.088L985.716 516.067L966.927 547.572L966.054 470.715L966.049 470.459L966.046 470.71L965.621 531.307L947.807 507.062L965.637 536.527L965.719 569.716L949.19 537.662L965.729 574.596L965.774 593.051L941.764 548.419L965.793 599.489L965.892 640.527Z" fill="#E2E2E2"/>
<path d="M1323.52 616.347H1323.25C1321.9 616.347 1320.6 615.799 1319.64 614.823C1318.68 613.846 1318.14 612.522 1318.14 611.141V611.141C1318.14 609.761 1318.68 608.436 1319.64 607.46C1320.6 606.484 1321.9 605.935 1323.25 605.935H1323.52V616.348V616.347Z" fill="#181818"/>
<path d="M1434.03 195.511C1438.97 195.506 1443.74 197.317 1447.47 200.613C1450.42 199.793 1453.51 199.655 1456.52 200.208C1459.01 196.529 1462.59 193.757 1466.73 192.297C1470.88 190.837 1475.37 190.766 1479.56 192.093C1483.75 193.421 1487.41 196.079 1490.01 199.677C1492.61 203.276 1494.01 207.627 1494.01 212.096H1413.92C1414.9 207.403 1417.43 203.196 1421.1 200.178C1424.76 197.159 1429.32 195.512 1434.03 195.511V195.511Z" fill="#E2E2E2"/>
<path d="M1313.54 261.52C1318.21 261.514 1322.72 263.227 1326.25 266.343C1329.03 265.568 1331.95 265.437 1334.8 265.96C1337.15 262.482 1340.53 259.861 1344.45 258.48C1348.37 257.1 1352.62 257.033 1356.58 258.288C1360.54 259.543 1364 262.056 1366.46 265.458C1368.92 268.86 1370.24 272.974 1370.24 277.198H1294.52C1295.45 272.762 1297.85 268.785 1301.31 265.931C1304.77 263.077 1309.09 261.52 1313.54 261.52V261.52Z" fill="#E2E2E2"/>
<path d="M1193.07 152.649C1197.93 152.644 1202.62 154.426 1206.29 157.668C1209.19 156.861 1212.23 156.725 1215.19 157.27C1217.63 153.65 1221.15 150.923 1225.23 149.487C1229.31 148.051 1233.73 147.981 1237.85 149.287C1241.97 150.593 1245.57 153.207 1248.13 156.747C1250.69 160.287 1252.07 164.567 1252.07 168.963H1173.28C1174.25 164.347 1176.74 160.209 1180.34 157.239C1183.94 154.27 1188.44 152.65 1193.07 152.649V152.649Z" fill="#E2E2E2"/>
<path d="M1713.27 359.961V527.035H1777.05V357.64L1762.25 358.179V323.993H1751.51L1749.74 248.28C1754.07 245.403 1757.12 238.571 1757.12 230.594C1757.13 228.304 1756.86 226.021 1756.34 223.794C1758.39 221.533 1759.65 218.643 1759.92 215.577C1760.18 212.511 1759.44 209.442 1757.81 206.849C1759.17 208.063 1760.76 208.988 1762.48 209.572C1764.19 210.155 1766.01 210.386 1767.81 210.25C1769.62 210.114 1771.38 209.614 1772.99 208.78C1774.6 207.945 1776.04 206.792 1777.21 205.388C1778.38 203.984 1779.27 202.357 1779.82 200.6C1780.37 198.844 1780.58 196.994 1780.42 195.157C1780.26 193.321 1779.75 191.534 1778.91 189.902C1778.07 188.269 1776.92 186.823 1775.52 185.646C1777.87 184.766 1779.93 183.247 1781.48 181.257C1783.04 179.266 1784.03 176.879 1784.35 174.355C1784.66 171.831 1784.3 169.267 1783.29 166.941C1782.27 164.614 1780.65 162.615 1778.6 161.16C1776.56 159.705 1774.15 158.85 1771.66 158.688C1769.17 158.525 1766.68 159.062 1764.47 160.239C1762.25 161.417 1760.4 163.19 1759.1 165.366C1757.81 167.542 1757.12 170.038 1757.12 172.582C1757.12 172.786 1757.13 172.988 1757.14 173.19C1755.26 172.606 1753.28 172.44 1751.34 172.704C1749.39 172.968 1747.52 173.655 1745.86 174.718C1744.2 175.782 1742.78 177.197 1741.71 178.868C1740.63 180.539 1739.92 182.427 1739.62 184.402C1737.92 183.369 1736.01 182.727 1734.04 182.519C1732.07 182.311 1730.07 182.543 1728.2 183.198C1726.32 183.854 1724.61 184.918 1723.18 186.316C1721.74 187.714 1720.63 189.412 1719.91 191.294C1719.18 193.175 1718.87 195.194 1718.99 197.211C1719.11 199.228 1719.66 201.194 1720.6 202.972C1721.54 204.751 1722.85 206.299 1724.44 207.511C1726.03 208.722 1727.85 209.567 1729.79 209.987C1729.79 210.088 1729.79 210.188 1729.79 210.29C1731.05 214.192 1732.67 217.969 1734.61 221.572C1733.66 224.481 1733.19 227.529 1733.2 230.594C1733.2 238.571 1736.25 245.403 1740.59 248.28L1738.82 323.993H1728.08V359.422L1713.27 359.961ZM1753.1 200.427L1753.13 200.428C1753.33 200.428 1753.53 200.421 1753.72 200.413C1753.85 200.824 1753.99 201.227 1754.14 201.621C1753.82 201.203 1753.47 200.804 1753.1 200.427V200.427Z" fill="#E2E2E2"/>
<path d="M1678.15 645.959H1871.78V417.779H1678.15V645.959Z" fill="#181818"/>
<path d="M1748.86 645.959H1801.06V599.55H1748.86V645.959Z" fill="#E2E2E2"/>
<path d="M1613.63 117.546C1613.62 117.715 1613.61 117.882 1613.61 118.051C1613.61 121.154 1614.22 124.226 1615.41 127.084C1616.59 129.942 1618.33 132.528 1620.52 134.687C1620.86 135.43 1621.24 136.153 1621.66 136.855C1620.07 141.703 1619.28 146.782 1619.31 151.891C1619.31 169.513 1628.23 183.798 1639.24 183.798C1650.25 183.798 1659.17 169.513 1659.17 151.891C1659.18 148.074 1658.74 144.27 1657.87 140.557C1661.29 136.789 1663.38 131.973 1663.83 126.863C1664.27 121.753 1663.04 116.637 1660.32 112.317C1662.59 114.339 1665.24 115.88 1668.1 116.853C1670.96 117.826 1673.98 118.21 1676.99 117.984C1680 117.757 1682.93 116.924 1685.62 115.533C1688.31 114.142 1690.7 112.221 1692.66 109.88C1694.61 107.54 1696.09 104.828 1697.01 101.901C1697.92 98.9741 1698.26 95.8907 1698 92.8298C1697.74 89.7689 1696.88 86.7915 1695.48 84.0704C1694.08 81.3493 1692.16 78.9387 1689.84 76.9786C1693.74 75.5103 1697.18 72.9798 1699.77 69.662C1702.37 66.3442 1704.02 62.366 1704.55 58.1595C1705.08 53.9529 1704.47 49.679 1702.78 45.8019C1701.09 41.9248 1698.39 38.5928 1694.98 36.1679C1691.56 33.7429 1687.56 32.3178 1683.4 32.0473C1679.25 31.7767 1675.1 32.6712 1671.41 34.6334C1667.72 36.5956 1664.63 39.5505 1662.47 43.1773C1660.31 46.804 1659.17 50.9638 1659.17 55.2048C1659.17 55.5445 1659.18 55.8816 1659.2 56.2177C1656.07 55.2444 1652.77 54.9682 1649.53 55.4077C1646.29 55.8472 1643.18 56.9922 1640.41 58.7649C1637.64 60.5376 1635.28 62.8965 1633.48 65.6815C1631.69 68.4664 1630.5 71.6122 1630.01 74.9052C1627.17 73.1834 1623.99 72.112 1620.7 71.7655C1617.42 71.4189 1614.09 71.8054 1610.97 72.8983C1607.84 73.9911 1604.98 75.764 1602.6 78.0939C1600.21 80.4238 1598.35 83.2549 1597.15 86.3907C1595.94 89.5264 1595.42 92.8917 1595.62 96.2528C1595.82 99.6139 1596.74 102.89 1598.3 105.855C1599.87 108.819 1602.06 111.4 1604.7 113.419C1607.35 115.438 1610.39 116.846 1613.63 117.546V117.546ZM1652.53 101.614C1652.86 101.614 1653.18 101.603 1653.51 101.589C1653.71 102.275 1653.95 102.946 1654.21 103.603C1653.67 102.906 1653.09 102.242 1652.47 101.613L1652.53 101.614Z" fill="#E2E2E2"/>
<path d="M1627.85 342.364H1650.63L1649.81 307.559V307.546L1646.83 179.925C1644.55 181.349 1641.92 182.102 1639.24 182.102C1636.56 182.102 1633.93 181.349 1631.64 179.925L1628.66 307.546V307.559L1627.85 342.364Z" fill="#FFC501"/>
<path d="M1586.09 367.497V645.959H1692.38V363.632L1667.71 364.528V307.559H1610.76V366.601L1586.09 367.497Z" fill="#FFC501"/>
<path d="M1885.08 117.546C1885.07 117.715 1885.06 117.882 1885.06 118.051C1885.06 121.154 1885.67 124.226 1886.86 127.084C1888.04 129.942 1889.78 132.528 1891.97 134.687C1892.31 135.43 1892.69 136.153 1893.11 136.855C1891.52 141.703 1890.73 146.782 1890.76 151.891C1890.76 169.513 1899.68 183.798 1910.69 183.798C1921.7 183.798 1930.62 169.513 1930.62 151.891C1930.63 148.074 1930.19 144.27 1929.32 140.557C1932.74 136.789 1934.83 131.973 1935.28 126.863C1935.72 121.753 1934.49 116.637 1931.77 112.317C1934.04 114.339 1936.69 115.881 1939.55 116.853C1942.41 117.826 1945.43 118.21 1948.44 117.984C1951.45 117.757 1954.38 116.924 1957.07 115.533C1959.76 114.142 1962.15 112.221 1964.11 109.881C1966.06 107.541 1967.54 104.828 1968.46 101.901C1969.37 98.9742 1969.71 95.8908 1969.45 92.8298C1969.19 89.7689 1968.33 86.7915 1966.93 84.0704C1965.53 81.3493 1963.61 78.9387 1961.29 76.9786C1965.19 75.5103 1968.63 72.9798 1971.22 69.662C1973.82 66.3442 1975.47 62.366 1976 58.1595C1976.53 53.953 1975.92 49.679 1974.23 45.8019C1972.54 41.9248 1969.84 38.5928 1966.43 36.1679C1963.01 33.7429 1959.01 32.3178 1954.86 32.0473C1950.7 31.7767 1946.55 32.6712 1942.86 34.6334C1939.17 36.5956 1936.08 39.5505 1933.92 43.1773C1931.76 46.804 1930.62 50.9638 1930.62 55.2048C1930.62 55.5445 1930.63 55.8816 1930.65 56.2177C1927.52 55.2444 1924.22 54.9682 1920.98 55.4077C1917.74 55.8472 1914.63 56.9922 1911.86 58.7649C1909.09 60.5376 1906.73 62.8965 1904.93 65.6815C1903.14 68.4664 1901.95 71.6122 1901.46 74.9052C1898.62 73.1834 1895.44 72.112 1892.15 71.7655C1888.87 71.4189 1885.54 71.8054 1882.42 72.8983C1879.29 73.9911 1876.43 75.764 1874.05 78.0939C1871.66 80.4238 1869.8 83.2549 1868.6 86.3907C1867.39 89.5264 1866.87 92.8917 1867.07 96.2528C1867.27 99.6139 1868.19 102.89 1869.76 105.855C1871.32 108.819 1873.51 111.4 1876.15 113.419C1878.8 115.438 1881.84 116.846 1885.08 117.546V117.546ZM1923.98 101.614C1924.31 101.614 1924.63 101.603 1924.96 101.589C1925.16 102.275 1925.4 102.946 1925.66 103.603C1925.12 102.906 1924.54 102.242 1923.92 101.613L1923.98 101.614Z" fill="#E2E2E2"/>
<path d="M1899.3 342.364H1922.08L1918.28 179.93C1913.37 181.727 1908 181.727 1903.1 179.93L1899.3 342.364Z" fill="#FFC501"/>
<path d="M1857.54 367.497V645.959H1963.85V363.632L1955.11 363.953L1939.16 364.528V307.559H1882.21V366.601L1857.54 367.497Z" fill="#FFC501"/>
<path d="M1803.85 472.071H1830.11V445.319H1803.85V472.071Z" fill="white"/>
<path d="M1761.83 472.071H1788.09V445.319H1761.83V472.071Z" fill="white"/>
<path d="M1719.82 472.071H1746.08V445.319H1719.82V472.071Z" fill="white"/>
<path d="M1803.85 514.874H1830.11V488.122H1803.85V514.874Z" fill="white"/>
<path d="M1761.83 514.874H1788.09V488.122H1761.83V514.874Z" fill="white"/>
<path d="M1719.82 514.874H1746.08V488.122H1719.82V514.874Z" fill="white"/>
<path d="M1803.85 557.677H1830.11V530.925H1803.85V557.677Z" fill="white"/>
<path d="M1761.83 557.677H1788.09V530.925H1761.83V557.677Z" fill="white"/>
<path d="M1719.82 557.677H1746.08V530.925H1719.82V557.677Z" fill="white"/>
<path d="M1626.11 461.37H1652.37V434.618H1626.11V461.37Z" fill="white"/>
<path d="M1626.11 504.173H1652.37V477.421H1626.11V504.173Z" fill="white"/>
<path d="M1626.11 546.977H1652.37V520.225H1626.11V546.977Z" fill="white"/>
<path d="M1626.11 589.78H1652.37V563.028H1626.11V589.78Z" fill="white"/>
<path d="M1897.34 461.37H1923.6V434.618H1897.34V461.37Z" fill="white"/>
<path d="M1897.34 504.173H1923.6V477.421H1897.34V504.173Z" fill="white"/>
<path d="M1897.34 546.977H1923.6V520.225H1897.34V546.977Z" fill="white"/>
<path d="M1897.34 589.78H1923.6V563.028H1897.34V589.78Z" fill="white"/>
<path d="M1111.61 626H1491.44V604H1111.61V626Z" fill="#181818"/>
<path d="M1152.19 615.057H1211.34V539.296H1167.12L1152.19 577.506V615.057Z" fill="#E2E2E2"/>
<path d="M1176.88 569.718H1202.15V543.977H1176.88V569.718Z" fill="white"/>
<path d="M1157.93 570.01H1174.01V544.27H1167.12L1157.93 570.01Z" fill="white"/>
<path d="M1195.26 595.459H1201V584.343H1195.26V595.459Z" fill="#181818"/>
<path d="M1169.13 571.765H1168.84C1167.4 571.765 1166.01 571.18 1164.98 570.137C1163.96 569.095 1163.39 567.682 1163.39 566.208C1163.39 564.734 1163.96 563.32 1164.98 562.278C1166.01 561.235 1167.4 560.65 1168.84 560.65H1169.13V571.765V571.765Z" fill="#181818"/>
<path d="M1129.22 603.857C1124.95 603.913 1120.74 604.949 1116.92 606.888C1113.09 608.827 1109.75 611.619 1107.13 615.057H1095.91L1106.82 584.094L1157.64 573.883L1156.21 615.057H1151.3C1148.68 611.619 1145.34 608.827 1141.51 606.888C1137.69 604.949 1133.49 603.913 1129.22 603.857V603.857Z" fill="#E2E2E2"/>
<path d="M1128.64 647.818C1142.44 647.818 1153.62 636.425 1153.62 622.37C1153.62 608.315 1142.44 596.921 1128.64 596.921C1114.84 596.921 1103.66 608.315 1103.66 622.37C1103.66 636.425 1114.84 647.818 1128.64 647.818Z" fill="#181818"/>
<path d="M1128.64 635.764C1135.9 635.764 1141.79 629.767 1141.79 622.37C1141.79 614.972 1135.9 608.976 1128.64 608.976C1121.38 608.976 1115.49 614.972 1115.49 622.37C1115.49 629.767 1121.38 635.764 1128.64 635.764Z" fill="#E2E2E2"/>
<path d="M1210.74 615H1491.44V509H1210.74V615Z" fill="#181818"/>
<path d="M1181.69 536.756H1339.9V509H1196.55L1181.69 536.756Z" fill="#181818"/>
<path d="M1210.74 606H1491.44V601H1210.74V606Z" fill="#FFC501"/>
<path d="M1165.68 573.52H1171.43V571.18H1165.68V573.52Z" fill="#181818"/>
<path d="M1101.75 600L1102.02 600.104C1103.38 600.628 1104.48 601.68 1105.07 603.03C1105.67 604.38 1105.72 605.916 1105.2 607.301C1104.69 608.686 1103.66 609.806 1102.33 610.415C1101.01 611.024 1099.5 611.072 1098.14 610.548L1097.87 610.444L1101.75 600V600Z" fill="#181818"/>
<path d="M1391.56 647.526C1403.62 647.526 1413.39 637.573 1413.39 625.295C1413.39 613.017 1403.62 603.064 1391.56 603.064C1379.51 603.064 1369.74 613.017 1369.74 625.295C1369.74 637.573 1379.51 647.526 1391.56 647.526Z" fill="#181818"/>
<path d="M1436.71 647.526C1448.76 647.526 1458.53 637.573 1458.53 625.295C1458.53 613.017 1448.76 603.064 1436.71 603.064C1424.66 603.064 1414.89 613.017 1414.89 625.295C1414.89 637.573 1424.66 647.526 1436.71 647.526Z" fill="#181818"/>
<path d="M1391.56 636.995C1397.91 636.995 1403.05 631.757 1403.05 625.295C1403.05 618.833 1397.91 613.594 1391.56 613.594C1385.22 613.594 1380.08 618.833 1380.08 625.295C1380.08 631.757 1385.22 636.995 1391.56 636.995Z" fill="#E2E2E2"/>
<path d="M1436.71 636.995C1443.06 636.995 1448.2 631.757 1448.2 625.295C1448.2 618.833 1443.06 613.594 1436.71 613.594C1430.37 613.594 1425.23 618.833 1425.23 625.295C1425.23 631.757 1430.37 636.995 1436.71 636.995Z" fill="#E2E2E2"/>
<path d="M1167.05 592.524H1175.57V598.371H1167.05V592.524Z" fill="#181818"/>
<path d="M1176.22 592.524H1184.73V598.371H1176.22V592.524Z" fill="#181818"/>
<path d="M1167.05 585.863H1175.57V591.706H1167.05V585.863Z" fill="#181818"/>
<path d="M1176.22 585.863H1184.73V591.706H1176.22V585.863Z" fill="#181818"/>
<path d="M1167.02 598.943H1184.83V599.764H1167.02V598.943Z" fill="#FFC501"/>
<path d="M1167.04 599.741H1169.74V601.146H1167.04V599.741Z" fill="#FFC501"/>
<path d="M1182.12 599.741H1184.83V601.146H1182.12V599.741Z" fill="#FFC501"/>
<path d="M1175.13 599.741H1176.78V601.146H1175.13V599.741Z" fill="#FFC501"/>
<path d="M1305.11 574.958L1305.52 551.571H1309.93L1313.25 567.769L1316.72 551.571H1320.99L1321.43 574.958H1318.25L1317.9 558.703L1314.58 574.958H1312.01L1308.63 558.645L1308.32 574.958H1305.11ZM1331.23 575.276C1329.58 575.276 1328.26 574.968 1327.28 574.352C1326.29 573.736 1325.59 572.851 1325.17 571.696C1324.74 570.541 1324.53 569.174 1324.53 567.596V558.847C1324.53 557.269 1324.74 555.921 1325.17 554.805C1325.59 553.669 1326.29 552.803 1327.28 552.206C1328.26 551.61 1329.58 551.311 1331.23 551.311C1332.93 551.311 1334.25 551.61 1335.22 552.206C1336.2 552.803 1336.9 553.669 1337.32 554.805C1337.77 555.921 1337.99 557.269 1337.99 558.847V567.625C1337.99 569.184 1337.77 570.541 1337.32 571.696C1336.9 572.831 1336.2 573.717 1335.22 574.352C1334.25 574.968 1332.93 575.276 1331.23 575.276ZM1331.23 572.129C1331.94 572.129 1332.46 571.975 1332.79 571.667C1333.14 571.359 1333.37 570.935 1333.48 570.396C1333.6 569.858 1333.66 569.27 1333.66 568.635V557.865C1333.66 557.211 1333.6 556.624 1333.48 556.104C1333.37 555.584 1333.14 555.18 1332.79 554.891C1332.46 554.583 1331.94 554.43 1331.23 554.43C1330.56 554.43 1330.05 554.583 1329.7 554.891C1329.35 555.18 1329.12 555.584 1329.01 556.104C1328.89 556.624 1328.84 557.211 1328.84 557.865V568.635C1328.84 569.27 1328.88 569.858 1328.98 570.396C1329.09 570.935 1329.33 571.359 1329.67 571.667C1330.02 571.975 1330.54 572.129 1331.23 572.129ZM1341.21 574.958V551.571H1345.45V561.359H1350.22V551.571H1354.49V574.958H1350.22V564.391H1345.45V574.958H1341.21ZM1358.07 574.958V551.571H1367.88V554.574H1362.34V561.301H1366.7V564.275H1362.34V572.013H1367.94V574.958H1358.07ZM1370.47 574.958V551.571H1374.72V561.388H1375.59L1379.37 551.571H1383.61L1379.17 562.601L1383.96 574.958H1379.63L1375.59 564.189H1374.72V574.958H1370.47ZM1392.33 575.276C1390.62 575.276 1389.27 574.939 1388.29 574.266C1387.33 573.592 1386.65 572.677 1386.27 571.523C1385.88 570.348 1385.69 569.001 1385.69 567.48V559.136C1385.69 557.538 1385.88 556.152 1386.27 554.978C1386.65 553.804 1387.33 552.899 1388.29 552.264C1389.27 551.629 1390.62 551.311 1392.33 551.311C1393.95 551.311 1395.21 551.59 1396.11 552.149C1397.04 552.687 1397.69 553.467 1398.08 554.487C1398.46 555.507 1398.66 556.691 1398.66 558.039V560.002H1394.56V557.981C1394.56 557.326 1394.52 556.73 1394.44 556.191C1394.38 555.652 1394.2 555.228 1393.89 554.92C1393.6 554.593 1393.09 554.43 1392.36 554.43C1391.63 554.43 1391.09 554.603 1390.74 554.949C1390.42 555.276 1390.21 555.729 1390.11 556.306C1390.01 556.864 1389.96 557.5 1389.96 558.212V568.375C1389.96 569.222 1390.03 569.925 1390.17 570.483C1390.3 571.022 1390.54 571.436 1390.89 571.725C1391.25 571.994 1391.75 572.129 1392.36 572.129C1393.07 572.129 1393.57 571.965 1393.86 571.638C1394.17 571.292 1394.36 570.839 1394.44 570.281C1394.52 569.723 1394.56 569.097 1394.56 568.404V566.296H1398.66V568.173C1398.66 569.559 1398.47 570.791 1398.11 571.869C1397.74 572.928 1397.1 573.765 1396.17 574.381C1395.27 574.978 1393.99 575.276 1392.33 575.276Z" fill="white"/>
<mask id="mask0_4802_84" style="mask-type:alpha" maskUnits="userSpaceOnUse" x="1303" y="561" width="96" height="14">
<rect x="1303.41" y="561.857" width="95.4274" height="13.1389" fill="#FFC501"/>
</mask>
<g mask="url(#mask0_4802_84)">
<path d="M1305.11 574.958L1305.52 551.571H1309.93L1313.25 567.769L1316.72 551.571H1320.99L1321.43 574.958H1318.25L1317.9 558.703L1314.58 574.958H1312.01L1308.63 558.645L1308.32 574.958H1305.11ZM1331.23 575.276C1329.58 575.276 1328.26 574.968 1327.28 574.352C1326.29 573.736 1325.59 572.851 1325.17 571.696C1324.74 570.541 1324.53 569.174 1324.53 567.596V558.847C1324.53 557.269 1324.74 555.921 1325.17 554.805C1325.59 553.669 1326.29 552.803 1327.28 552.206C1328.26 551.61 1329.58 551.311 1331.23 551.311C1332.93 551.311 1334.25 551.61 1335.22 552.206C1336.2 552.803 1336.9 553.669 1337.32 554.805C1337.77 555.921 1337.99 557.269 1337.99 558.847V567.625C1337.99 569.184 1337.77 570.541 1337.32 571.696C1336.9 572.831 1336.2 573.717 1335.22 574.352C1334.25 574.968 1332.93 575.276 1331.23 575.276ZM1331.23 572.129C1331.94 572.129 1332.46 571.975 1332.79 571.667C1333.14 571.359 1333.37 570.935 1333.48 570.396C1333.6 569.858 1333.66 569.27 1333.66 568.635V557.865C1333.66 557.211 1333.6 556.624 1333.48 556.104C1333.37 555.584 1333.14 555.18 1332.79 554.891C1332.46 554.583 1331.94 554.43 1331.23 554.43C1330.56 554.43 1330.05 554.583 1329.7 554.891C1329.35 555.18 1329.12 555.584 1329.01 556.104C1328.89 556.624 1328.84 557.211 1328.84 557.865V568.635C1328.84 569.27 1328.88 569.858 1328.98 570.396C1329.09 570.935 1329.33 571.359 1329.67 571.667C1330.02 571.975 1330.54 572.129 1331.23 572.129ZM1341.21 574.958V551.571H1345.45V561.359H1350.22V551.571H1354.49V574.958H1350.22V564.391H1345.45V574.958H1341.21ZM1305.17 617.958V594.571H1314.99V597.574H1309.44V604.301H1313.8V607.275H1309.44V615.013H1315.04V617.958H1305.17ZM1317.58 617.958V594.571H1321.82V604.388H1322.69L1326.47 594.571H1330.72L1326.27 605.601L1331.06 617.958H1326.73L1322.69 607.189H1321.82V617.958H1317.58ZM1339.44 618.276C1337.72 618.276 1336.37 617.939 1335.39 617.266C1334.43 616.592 1333.76 615.677 1333.37 614.523C1332.99 613.348 1332.79 612.001 1332.79 610.48V602.136C1332.79 600.538 1332.99 599.152 1333.37 597.978C1333.76 596.804 1334.43 595.899 1335.39 595.264C1336.37 594.629 1337.72 594.311 1339.44 594.311C1341.05 594.311 1342.31 594.59 1343.22 595.149C1344.14 595.687 1344.8 596.467 1345.18 597.487C1345.57 598.507 1345.76 599.691 1345.76 601.039V603.002H1341.66V600.981C1341.66 600.326 1341.62 599.73 1341.54 599.191C1341.49 598.652 1341.3 598.228 1340.99 597.92C1340.71 597.593 1340.2 597.43 1339.46 597.43C1338.73 597.43 1338.19 597.603 1337.85 597.949C1337.52 598.276 1337.31 598.729 1337.21 599.306C1337.12 599.864 1337.07 600.5 1337.07 601.212V611.375C1337.07 612.222 1337.14 612.925 1337.27 613.483C1337.4 614.022 1337.65 614.436 1337.99 614.725C1338.36 614.994 1338.85 615.129 1339.46 615.129C1340.18 615.129 1340.68 614.965 1340.97 614.638C1341.27 614.292 1341.47 613.839 1341.54 613.281C1341.62 612.723 1341.66 612.097 1341.66 611.404V609.296H1345.76V611.173C1345.76 612.559 1345.58 613.791 1345.21 614.869C1344.84 615.928 1344.2 616.765 1343.28 617.381C1342.37 617.978 1341.09 618.276 1339.44 618.276Z" fill="white"/>
</g>
</g>
<defs>
<clipPath id="clip0_4802_84">
<rect width="1920" height="645" fill="white"/>
</clipPath>
</defs>
</svg>
