<svg width="67" height="53" viewBox="0 0 67 53" fill="none" xmlns="http://www.w3.org/2000/svg">
<path d="M61.5802 47.842L61.5802 48.242H61.9802H65.3006C65.723 48.242 66.0064 48.5492 66.006 48.8597V48.8602V51.9141C66.006 52.2245 65.721 52.5323 65.2989 52.5323H1.10707C0.684564 52.5323 0.4 52.2242 0.4 51.9141V48.8602C0.4 48.5498 0.684966 48.242 1.10707 48.242H4.42754H4.82754V47.842V11.1973C4.82754 10.8869 5.11251 10.5791 5.53461 10.5791H12.1755C12.5981 10.5791 12.8826 10.8873 12.8826 11.1973L12.8818 47.842L12.8818 48.242H13.2818H16.6023H17.0023V47.842V19.3406C17.0023 19.0302 17.2873 18.7224 17.7094 18.7224H24.3503C24.7728 18.7224 25.0574 19.0305 25.0574 19.3405L25.0558 47.842L25.0558 48.242H25.4558H28.7763H29.1763V47.842V6.10775C29.1763 5.79733 29.4613 5.48955 29.8834 5.48955H36.5243C36.9468 5.48955 37.2314 5.7977 37.2314 6.10774L37.2306 47.842L37.2306 48.242H37.6306H40.9511H41.3511V47.842V11.1973C41.3511 10.8869 41.6361 10.5791 42.0582 10.5791H48.6991C49.1216 10.5791 49.4062 10.8872 49.4062 11.1973L49.4054 47.842L49.4054 48.242H49.8054H53.1259H53.5259V47.842V1.0182C53.5259 0.707784 53.8108 0.4 54.2329 0.4H60.8739C61.2964 0.4 61.5809 0.708158 61.5809 1.01819L61.5802 47.842ZM55.3402 1.63611H54.9402V2.03611V47.842V48.242H55.3402H59.7668H60.1668V47.842V2.03611V1.63611H59.7668H55.3402ZM43.1655 11.8152H42.7655V12.2152V47.842V48.242H43.1655H47.5921H47.9921V47.842V12.2152V11.8152H47.5921H43.1655ZM30.9916 6.72566H30.5916V7.12566V47.842V48.242H30.9916H35.4182H35.8182V47.842V7.12566V6.72566H35.4182H30.9916ZM18.8169 19.9579H18.4169V20.3579V47.8415V48.2415H18.8169H23.2435H23.6435V47.8415V20.3579V19.9579H23.2435H18.8169ZM6.64294 11.8152H6.24294V12.2152V47.842V48.242H6.64294H11.0696H11.4696V47.842V12.2152V11.8152H11.0696H6.64294ZM64.1943 51.2958H64.5943V50.8958V49.8776V49.4776H64.1943H2.21592H1.81592V49.8776V50.8958V51.2958H2.21592H64.1943Z" fill="#FC2020" stroke="white" stroke-width="0.8"/>
</svg>
