<svg width="24" height="24" viewBox="0 0 24 24" fill="none" xmlns="http://www.w3.org/2000/svg">
<g clip-path="url(#clip0_228_619)">
<path d="M14.8617 22.6251C14.1629 22.6251 13.4729 22.4257 12.8828 22.048C7.74385 18.7588 3.45093 14.2098 0.468275 8.8925C-0.337017 7.45686 -0.0850882 5.63983 1.08095 4.47383L3.36603 2.18875C4.26321 1.29157 5.72296 1.29157 6.62014 2.18875L8.63404 4.20265C9.53122 5.09979 9.53122 6.55959 8.63404 7.45672L7.44334 8.64742C9.15205 11.0357 11.1873 13.154 13.5046 14.9564L14.8192 13.6418C15.7163 12.7446 17.1761 12.7447 18.0732 13.6418L20.09 15.6587C20.9849 16.5536 20.9868 18.0115 20.0942 18.9086L17.4828 21.5333C16.8913 22.1279 16.107 22.5073 15.2744 22.6018C15.137 22.6173 14.9992 22.6251 14.8617 22.6251Z" fill="#181818"/>
<path d="M21.2154 2.56002H14.0467C14.2335 2.34271 14.2733 2.02318 14.1219 1.76093C13.9302 1.42896 13.5058 1.31528 13.1739 1.50692L11.1888 2.65298C10.9741 2.77693 10.8418 3.00605 10.8418 3.254C10.8418 3.50195 10.9741 3.73106 11.1888 3.85502L13.1739 5.00107C13.2832 5.06418 13.4025 5.09416 13.5202 5.09416C13.7601 5.09416 13.9934 4.9697 14.1219 4.74706C14.2733 4.48481 14.2335 4.16533 14.0467 3.94801H21.2154C21.8023 3.94801 22.2797 4.42545 22.2797 5.01236C22.2797 5.59927 21.8023 6.0767 21.2154 6.0767H15.5215C15.1382 6.0767 14.8274 6.38744 14.8274 6.77072C14.8274 7.15401 15.1382 7.46474 15.5215 7.46474H21.2154C22.5676 7.46474 23.6677 6.36463 23.6677 5.01236C23.6677 3.66014 22.5676 2.56002 21.2154 2.56002Z" fill="#181818"/>
</g>
<defs>
<clipPath id="clip0_228_619">
<rect width="23.6686" height="23.6686" fill="white" transform="translate(0 0.18335)"/>
</clipPath>
</defs>
</svg>
